<svg xmlns="http://www.w3.org/2000/svg" viewBox="0 0 162.09 77.99"><defs><style>.cls-1{fill:#292f36;}.cls-2{fill:#f3f3f3;}</style></defs><title>Asset 2</title><g id="Layer_2" data-name="Layer 2"><g id="Layer_1-2" data-name="Layer 1"><path class="cls-1" d="M98.08,34.17v.25c-.33,0-.76,0-1.31,0-.71,0-1.23,0-1.57,0v-.25a2,2,0,0,0,.67-.11.36.36,0,0,0,.2-.34,1.69,1.69,0,0,0-.15-.58l-.75-2h-3l-.5,1.3a3.27,3.27,0,0,0-.24,1,.6.6,0,0,0,.26.55,1.6,1.6,0,0,0,.8.18v.25c-.46,0-.93,0-1.41,0a8,8,0,0,0-.92,0v-.25a1.53,1.53,0,0,0,1-1.06L94,25.67h.2l3,7.72C97.43,33.89,97.71,34.16,98.08,34.17Zm-3-3.29L93.7,27.22l-1.4,3.66Z"/><path class="cls-1" d="M101,28.11h1.82v.25H101v4.75a1.27,1.27,0,0,0,.2.79.71.71,0,0,0,.59.25.83.83,0,0,0,.65-.31,2.46,2.46,0,0,0,.45-1l.24.06c-.2,1.13-.73,1.69-1.59,1.69a1.94,1.94,0,0,1-.69-.1,1.24,1.24,0,0,1-.48-.31,1.44,1.44,0,0,1-.37-.66,4.23,4.23,0,0,1-.1-1.05V28.36H98.67v-.25h1.18V26.24a3.87,3.87,0,0,0,1.1-.18Z"/><path class="cls-1" d="M109.26,33a2.53,2.53,0,0,1-.83,1.16,2.32,2.32,0,0,1-1.47.48,2.77,2.77,0,0,1-1.51-.4,2.53,2.53,0,0,1-1-1.12,3.76,3.76,0,0,1-.34-1.66,4.56,4.56,0,0,1,.34-1.85,2.81,2.81,0,0,1,1-1.21,2.58,2.58,0,0,1,1.46-.42,2.14,2.14,0,0,1,1.7.67,3,3,0,0,1,.6,2h-3.84a6.14,6.14,0,0,0,0,.78,3.58,3.58,0,0,0,.26,1.41,2.33,2.33,0,0,0,.7.93,1.49,1.49,0,0,0,.92.32,1.91,1.91,0,0,0,1-.28,2.1,2.1,0,0,0,.76-.94Zm-3.39-4.22a3.29,3.29,0,0,0-.52,1.66H108a3.46,3.46,0,0,0-.28-1.59.94.94,0,0,0-.89-.64A1.21,1.21,0,0,0,105.87,28.73Z"/><path class="cls-1" d="M112.7,33.28a.92.92,0,0,0,.21.69,1.05,1.05,0,0,0,.72.19v.26l-1.48-.05-1.48.05v-.26a1.05,1.05,0,0,0,.72-.19.92.92,0,0,0,.21-.69v-7a1.3,1.3,0,0,0-.21-.82.89.89,0,0,0-.72-.26v-.26a6.34,6.34,0,0,0,.76,0,4.11,4.11,0,0,0,1.27-.17Z"/><path class="cls-1" d="M116.91,33.28a.92.92,0,0,0,.21.69,1.05,1.05,0,0,0,.72.19v.26l-1.48-.05-1.49.05v-.26a1.07,1.07,0,0,0,.73-.19.92.92,0,0,0,.21-.69V29.44a1.28,1.28,0,0,0-.21-.82.87.87,0,0,0-.73-.26V28.1c.27,0,.52,0,.76,0a3.82,3.82,0,0,0,1.28-.18Zm-.09-8a.74.74,0,0,1,.24.55.75.75,0,0,1-.24.55.71.71,0,0,1-.55.23.74.74,0,0,1-.55-.23.78.78,0,0,1-.23-.55.76.76,0,0,1,.23-.55.75.75,0,0,1,.55-.24A.72.72,0,0,1,116.82,25.27Z"/><path class="cls-1" d="M124.41,33a2.53,2.53,0,0,1-.83,1.16,2.32,2.32,0,0,1-1.47.48,2.77,2.77,0,0,1-1.51-.4,2.53,2.53,0,0,1-1-1.12,3.76,3.76,0,0,1-.34-1.66,4.56,4.56,0,0,1,.34-1.85,2.81,2.81,0,0,1,1-1.21,2.58,2.58,0,0,1,1.46-.42,2.13,2.13,0,0,1,1.7.67,3,3,0,0,1,.6,2h-3.84a6.14,6.14,0,0,0,0,.78,3.58,3.58,0,0,0,.26,1.41,2.33,2.33,0,0,0,.7.93,1.49,1.49,0,0,0,.92.32,1.91,1.91,0,0,0,1-.28,2.1,2.1,0,0,0,.76-.94ZM121,28.73a3.2,3.2,0,0,0-.51,1.66h2.67a3.46,3.46,0,0,0-.28-1.59.94.94,0,0,0-.89-.64A1.21,1.21,0,0,0,121,28.73Z"/><path class="cls-1" d="M130.52,28.21a.89.89,0,0,1,.31.69.79.79,0,0,1-.19.54.61.61,0,0,1-.5.23.67.67,0,0,1-.46-.17.6.6,0,0,1-.2-.47.76.76,0,0,1,.42-.66.3.3,0,0,0-.26-.12,1.26,1.26,0,0,0-.87.37,2.69,2.69,0,0,0-.61.92,2.6,2.6,0,0,0-.22,1v2.6a.9.9,0,0,0,.32.79,1.76,1.76,0,0,0,1,.22v.26H129l-1.6,0-1.45.05v-.26a1.07,1.07,0,0,0,.73-.19.92.92,0,0,0,.21-.69V29.44a1.28,1.28,0,0,0-.21-.82.87.87,0,0,0-.73-.26V28.1c.26,0,.52,0,.76,0a3.86,3.86,0,0,0,1.28-.18V29.5a3,3,0,0,1,.7-1.09,1.53,1.53,0,0,1,1.08-.48A1.13,1.13,0,0,1,130.52,28.21Z"/><path class="cls-1" d="M100.83,47.26a2.71,2.71,0,0,1,1.11,2.15,3,3,0,0,1-1.33,2.6,6.32,6.32,0,0,1-3.68.92c-.35,0-.65,0-.89,0l-2.35,0c-1.24,0-2.18,0-2.79,0v-.36a3.47,3.47,0,0,0,.88-.15.64.64,0,0,0,.38-.42,3.72,3.72,0,0,0,.1-1V42a3.72,3.72,0,0,0-.1-1,.64.64,0,0,0-.38-.42,3.47,3.47,0,0,0-.88-.15v-.36c.61,0,1.53,0,2.76,0h2c.25,0,.52,0,.84,0a5.94,5.94,0,0,1,3.33.78A2.4,2.4,0,0,1,101,42.94a2.73,2.73,0,0,1-.92,2,5,5,0,0,1-2.72,1.24v0A6.24,6.24,0,0,1,100.83,47.26Zm-5.27-6.7a.67.67,0,0,0-.32.45,4,4,0,0,0-.09,1V46.1h.78a1.75,1.75,0,0,0,1.65-.81,4.18,4.18,0,0,0,.47-2.15,3.93,3.93,0,0,0-.42-2,1.52,1.52,0,0,0-1.36-.67A1.57,1.57,0,0,0,95.56,40.56Zm3.36,8.77a3,3,0,0,0-.72-2.18,3.12,3.12,0,0,0-2.29-.74h-.76V51a3.77,3.77,0,0,0,.09,1,.67.67,0,0,0,.35.43,2.34,2.34,0,0,0,.81.11Q98.92,52.51,98.92,49.33Z"/><path class="cls-1" d="M112,51a2.26,2.26,0,0,0,.26,1.22,1,1,0,0,0,.9.38v.38a10.56,10.56,0,0,0-1.13,0,11.74,11.74,0,0,0-2.65.25V51.5a3,3,0,0,1-2.92,1.69,2.5,2.5,0,0,1-2-.71,2.1,2.1,0,0,1-.43-.9,6.37,6.37,0,0,1-.14-1.46v-4.6a2.17,2.17,0,0,0-.26-1.22,1,1,0,0,0-.9-.38v-.38a10.68,10.68,0,0,0,1.13.05,11.68,11.68,0,0,0,2.65-.25v7.52a2.26,2.26,0,0,0,.23,1.14.91.91,0,0,0,.86.39,1.59,1.59,0,0,0,1.24-.61,2.23,2.23,0,0,0,.52-1.5V45.52a2.26,2.26,0,0,0-.26-1.22,1,1,0,0,0-.9-.38v-.38a10.92,10.92,0,0,0,1.13.05,11.74,11.74,0,0,0,2.65-.25Z"/><path class="cls-1" d="M119.93,43.43a3.35,3.35,0,0,1,1,.4,2.1,2.1,0,0,1,.74.74,1.81,1.81,0,0,1,.26,1,1.41,1.41,0,0,1-.4,1,1.38,1.38,0,0,1-1,.41,1.43,1.43,0,0,1-1-.36,1.3,1.3,0,0,1-.38-1,1.4,1.4,0,0,1,.34-.95,1.74,1.74,0,0,1,.86-.54,1,1,0,0,0-.45-.32,1.69,1.69,0,0,0-.64-.12,1.88,1.88,0,0,0-1.7,1.19,6.79,6.79,0,0,0-.61,3.12,4.46,4.46,0,0,0,.69,2.79,2.14,2.14,0,0,0,1.73.86,2.65,2.65,0,0,0,1.24-.33,3.1,3.1,0,0,0,1.14-1.14l.31.11a4.6,4.6,0,0,1-1.28,2,3.3,3.3,0,0,1-2.34.85,4,4,0,0,1-3-1.24,5.11,5.11,0,0,1-1.18-3.67,5.82,5.82,0,0,1,.58-2.72,3.94,3.94,0,0,1,1.6-1.7,4.67,4.67,0,0,1,2.32-.58A5.28,5.28,0,0,1,119.93,43.43Z"/><path class="cls-1" d="M126.63,45a3,3,0,0,1,3-1.69,2.48,2.48,0,0,1,2,.71,2.11,2.11,0,0,1,.44.9,6.37,6.37,0,0,1,.14,1.46v4.89a1.57,1.57,0,0,0,.25,1,1.19,1.19,0,0,0,.91.28v.38c-1.26,0-2.06-.07-2.4-.07s-1.2,0-2.36.07v-.38a.92.92,0,0,0,.77-.28,1.82,1.82,0,0,0,.21-1V45.59a2.12,2.12,0,0,0-.24-1.12,1,1,0,0,0-.88-.39,1.64,1.64,0,0,0-1.28.59,2.19,2.19,0,0,0-.52,1.5v5.07a1.73,1.73,0,0,0,.22,1,.89.89,0,0,0,.76.28v.38c-1.16,0-1.91-.07-2.25-.07s-1.25,0-2.51.07v-.38a1.2,1.2,0,0,0,.9-.28,1.56,1.56,0,0,0,.26-1V40.9a2.22,2.22,0,0,0-.26-1.21,1,1,0,0,0-.9-.38v-.39A11,11,0,0,0,124,39a11.68,11.68,0,0,0,2.65-.26Z"/><path class="cls-1" d="M142.74,44a2,2,0,0,1,.44.89,7.22,7.22,0,0,1,.12,1.47v4.89a1.5,1.5,0,0,0,.27,1,1.17,1.17,0,0,0,.9.28v.38c-1.21,0-2-.07-2.4-.07s-1.15,0-2.36.07v-.38a.89.89,0,0,0,.76-.28,1.73,1.73,0,0,0,.22-1V45.59a2,2,0,0,0-.25-1.12,1,1,0,0,0-.88-.39,1.65,1.65,0,0,0-1.27.61,2.24,2.24,0,0,0-.53,1.5v5.05a1.8,1.8,0,0,0,.22,1,.91.91,0,0,0,.76.28v.38c-1.11,0-1.86-.07-2.25-.07s-1.2,0-2.5.07v-.38a1.17,1.17,0,0,0,.9-.28,1.56,1.56,0,0,0,.26-1V45.52a2.26,2.26,0,0,0-.26-1.22,1,1,0,0,0-.9-.38v-.38a10.73,10.73,0,0,0,1.12.05,11.38,11.38,0,0,0,2.65-.25V45a3,3,0,0,1,3-1.69A2.53,2.53,0,0,1,142.74,44Z"/><path class="cls-1" d="M152.88,50.24l.33.11a4.41,4.41,0,0,1-1.3,2,3.43,3.43,0,0,1-2.34.83A4,4,0,0,1,146.51,52a5.16,5.16,0,0,1-1.13-3.63,5.3,5.3,0,0,1,1.21-3.75,4.25,4.25,0,0,1,3.24-1.3q3.4,0,3.41,4h-5.1c0,.18,0,.46,0,.85a5.26,5.26,0,0,0,.33,2,2.57,2.57,0,0,0,.88,1.16,2,2,0,0,0,1.15.37A2.75,2.75,0,0,0,152.88,50.24Zm-4.24-5.77a6.38,6.38,0,0,0-.54,2.5H151a6.88,6.88,0,0,0-.28-2.37c-.21-.62-.53-.93-.95-.93A1.24,1.24,0,0,0,148.64,44.47Z"/><path class="cls-1" d="M161.67,43.78a1.74,1.74,0,0,1,.42,1.18,1.59,1.59,0,0,1-.39,1.1,1.33,1.33,0,0,1-1,.42,1.4,1.4,0,0,1-1-.32,1.06,1.06,0,0,1-.36-.84,1.65,1.65,0,0,1,.8-1.42l-.22,0a1.06,1.06,0,0,0-.29,0,1.71,1.71,0,0,0-1.17.84,2.66,2.66,0,0,0-.48,1.49v4.81a1.41,1.41,0,0,0,.4,1.16,2.09,2.09,0,0,0,1.3.33v.38a2.56,2.56,0,0,1-.42,0l-2.47,0-2.23,0a1.94,1.94,0,0,1-.36,0v-.38a1.17,1.17,0,0,0,.9-.28,1.56,1.56,0,0,0,.26-1V45.52a2.26,2.26,0,0,0-.26-1.22,1,1,0,0,0-.9-.38v-.38a10.73,10.73,0,0,0,1.12.05,11.54,11.54,0,0,0,2.66-.25V45a3.1,3.1,0,0,1,1-1.26,2.46,2.46,0,0,1,1.48-.49A1.53,1.53,0,0,1,161.67,43.78Z"/><circle class="cls-1" cx="38.99" cy="38.99" r="38.99"/><path class="cls-2" d="M32.8,27.23c1.62,0,3.28,0,5,0s3.42.15,5.17.32a45.62,45.62,0,0,1,5.33.83c.45.11.9.22,1.35.35s.91.27,1.36.44a13,13,0,0,1,1.35.57,8.17,8.17,0,0,1,1.33.77l.77.54-.22.53c-.76,1.86-.73.88-.87,1.22l-.11,0-.06,0h-.35l-.26,0-.48,0-1,.09-1.92.17c-1.27.11-2.55.24-3.82.38-2.54.29-5.06.62-7.54,1a70.17,70.17,0,0,0-7.21,1.55,29.89,29.89,0,0,0-3.31,1.12L27,37.5l-.09,0,0,0-.14.08a1.08,1.08,0,0,0-.24.18.48.48,0,0,0-.12.22v0s0,0,0,0,.06,0,.1,0l.19,0L27,38h.09l.59-.07c.4,0,.8-.08,1.21-.1.2,0,.41,0,.62,0h.28l.27,0,1.14-.07c1.54-.1,3.1-.2,4.68-.27s3.15-.1,4.74-.1,3.19,0,4.79.15,3.22.27,4.82.51A34.45,34.45,0,0,1,55,39.09a22.17,22.17,0,0,1,2.38.89c.19.08.39.17.58.27l.29.14.08,0,0,0,.06,0,.25.15.51.28.47.31c.32.21.6.43.89.65l.13.08.07.09.14.19.14.19,0,0,0,0v0l0,.09.11.36v0h0a.87.87,0,0,1,0,.1,1.92,1.92,0,0,1,0,.24,2.3,2.3,0,0,1-.22.91,3,3,0,0,1-.52.77,4.55,4.55,0,0,1-1.82,1.1l-.29.08-.28.09-.6.12-.25,0-.18,0-.36,0-1.27.1-1.21.1c-.8.06-1.59.15-2.37.25a66.23,66.23,0,0,0-9.25,1.9c0-.06.33-.24.5-.36s.15-.19-.61,0l-1.07.26-.93.24-.81.21-.7.18c-.86.21-1.43.35-1.82.42-.78.13-.83,0-.87-.11a2.36,2.36,0,0,1,.66-.28c.19-.08.42-.15.66-.24l.35-.12.36-.11c.94-.31,1.69-.55.92-.37l.88-.27.93-.28c.64-.18,1.29-.38,1.93-.55l.95-.26L44.9,47l.85-.21.77-.18c1-.23,1.64-.37,1.78-.42s0,0-.22,0-.62.08-1.21.19l-.78.13L45,46.77l-1.32.31-1.41.38-1.41.39-1.31.37-1.08.32-.78.19c-.78.16-.44-.06-.09-.28a1.53,1.53,0,0,0,.37-.28c0-.06-.07-.08-.47,0l-1.36.47-1.65.59-1.63.61-.72.29-.62.24c-1.53.47,1.34-.95-.14-.36-2.25.83-4.83,1.92-7.54,3.19s-5.55,2.72-8.36,4.22c0-.06-.41.07-.44,0s.06-.09.31-.25.69-.41,1.39-.8c3.43-1.81,6.92-3.53,10.49-5.1a115.87,115.87,0,0,1,11-4.22c1.87-.61,3.77-1.17,5.68-1.65l.72-.18.73-.17.72-.16.73-.16.73-.15.73-.14c.49-.08,1-.18,1.47-.25,1-.16,2-.3,3-.41l1.49-.14,1.47-.12.35,0h.67l.15,0h.11s0,0,0,0h0a.2.2,0,0,0,.11,0,.16.16,0,0,0,.07-.07,0,0,0,0,0,0,0h0a.05.05,0,0,0,0,0l-.08,0-.3-.16-.48-.22a19.47,19.47,0,0,0-2-.75,30.59,30.59,0,0,0-4.33-1c-1.48-.24-3-.39-4.5-.49s-3-.15-4.57-.16-3.07,0-4.6.07-3.08.14-4.63.23l-1.18.07-.62,0h-.55c-.36,0-.73,0-1.1.08-.18,0-.37,0-.55.06l-.44.05-.58.07-1.15.15c-.39,0-.77.1-1.14.13a10.09,10.09,0,0,1-1.05.06,3.34,3.34,0,0,1-.79-.11l-.07,0-.08,0-.13-.06-.23-.12L21.64,41c-.05-.05-.11-.09-.15-.14a1.15,1.15,0,0,1-.14-.17,1.64,1.64,0,0,1-.15-.22l0-.08,0-.05h0s0,0,0,0v0a.88.88,0,0,1-.05-.15c0-.11-.08-.21-.11-.31s.06-.4.09-.58a3.47,3.47,0,0,1,.16-.55,4.39,4.39,0,0,1,.58-1.08,6.29,6.29,0,0,1,1-1.07,10.31,10.31,0,0,1,1.5-1l.87-.45.45-.2.28-.13,1-.39c.66-.25,1.32-.47,2-.67,1.32-.4,2.65-.73,4-1s2.66-.55,4-.78c2.65-.46,5.31-.82,8-1.13q2-.22,4-.42l2-.18,1-.09.48,0,.23,0h.12l0,.27.07.49,0,.21,0,.19a1.36,1.36,0,0,0,0,.17.61.61,0,0,0,0,.13.87.87,0,0,0,0,.1s0,.05,0,.05L52,33a8,8,0,0,0-1.34-.72,14.33,14.33,0,0,0-1.56-.56,26.66,26.66,0,0,0-3.4-.76,62.62,62.62,0,0,0-7.17-.71c-1.21-.06-2.42-.09-3.63-.11H30.36l-.93,0-1.86,0a11.39,11.39,0,0,1-1.7-.06,3.48,3.48,0,0,1-1.1-.28l-.1,0-.08,0-.08,0-.08-.05-.13-.1a.58.58,0,0,1-.12-.1,1.39,1.39,0,0,1-.21-.21,1.44,1.44,0,0,1-.18-.25,1.9,1.9,0,0,1-.17-.35,2.14,2.14,0,0,1-.13-.54V28s0-.05,0-.07v-.06c-.58.07.78-.11.64-.09h0l0-.09,0-.19.22-1.31.27-.12.27-.13.55-.24,1.1-.5.27-.12c.1,0,.19-.09.29-.12l.59-.24,1.19-.47.59-.23.3-.12.27-.09.63-.22.31-.11.32-.11.64-.2q2.54-.81,5.15-1.37a46.64,46.64,0,0,1,10.62-1.07c.83,0,1.48.08,2,.13l.34.05.29,0,.24,0,.1,0,.1,0c.18.05.23.08.18.09h-.52c-.55,0-1.43,0-2.48,0-.53,0-1.1,0-1.69.07l-1.8.15a9.15,9.15,0,0,1,1.62,0c.41,0,.82.05,1.63,0,0,0-.2.1-.61.15s-1,.13-1.81.22-1.8.2-3,.38-2.57.4-4.14.73c1.57-.31,3.15-.54,4.74-.7l.46,0,.22,0c.08,0,0,.05-.07.08s-.24.08-.36.12-.22.09-.21.12l-.59.06-.57.07-1,.14-.71.13a.91.91,0,0,0-.26.08l0,.26c.78-.14,1.95-.3,3.13-.41s2.35-.18,3.14-.2a17.92,17.92,0,0,0-3.14.26L43,23l-.6.07-.63.08-.33,0-.33.05-.68.1c-.92.14-1.88.31-2.84.51a41.76,41.76,0,0,0-5.3,1.43l.06.19c1.5-.46,3.38-1,5.28-1.41.95-.21,1.91-.39,2.83-.54l.67-.1.33-.05.33,0,.63-.08.6-.06a9.06,9.06,0,0,0-1.35.26c-.18.06-.18.11-.17.18-1.15.17-2.3.36-3.44.59s-2.28.49-3.4.8l-.42.12-.42.12-.84.25c-.55.18-1.11.36-1.66.56l-.41.15-.16.07-.3.13a4.37,4.37,0,0,0-.49.26l.74-.3.19-.06.46-.17.55-.19.55-.18-.86.37-.5.2-.07,0h0l0,0-.07,0-.27.13-.29.14-.44.19-.13.06h0s0,0,0,0v0a.08.08,0,0,0,0,.07.11.11,0,0,0,.09.08.28.28,0,0,0,.13,0,4.58,4.58,0,0,0,.53,0h.57Z"/></g></g></svg>