<?xml version="1.0" encoding="UTF-8"?><svg id="Layer_2" xmlns="http://www.w3.org/2000/svg" xmlns:xlink="http://www.w3.org/1999/xlink" viewBox="0 0 245.46 195.2"><defs><style>.cls-1{fill:none;}.cls-1,.cls-2{stroke-width:0px;}.cls-2{fill:#393836;}.cls-3{clip-path:url(#clippath);}</style><clipPath id="clippath"><rect class="cls-1" width="245.46" height="195.2"/></clipPath></defs><g id="Layer_1-2"><g class="cls-3"><path class="cls-2" d="M94.33,34.8c8.61-.13,17.44-.09,26.43.19,9,.29,18.17.81,27.47,1.73,9.31.95,18.75,2.24,28.28,4.42,2.38.54,4.77,1.14,7.16,1.83,2.39.68,4.79,1.44,7.18,2.32,2.4.88,4.79,1.86,7.17,3.02,2.38,1.16,4.76,2.49,7.07,4.11l4.07,2.85-1.14,2.79c-4.04,9.9-3.92,4.67-4.62,6.48-.2.07-.54.17-.63.19l-.29.07-.17.04-.25.04-.18.03-.5.07-.76.08-1.35.13-2.58.23c-1.7.15-3.4.29-5.1.44-3.38.3-6.77.61-10.16.91-6.77.63-13.53,1.31-20.27,2.06-13.48,1.5-26.89,3.27-40.02,5.46-13.13,2.2-26.03,4.79-38.25,8.21-6.1,1.72-12.04,3.65-17.57,5.94-.69.29-1.37.58-2.05.88-.46.2-.37.17-.47.22l-.2.1c-.27.14-.52.28-.76.43-.48.3-.9.62-1.24.97-.31.34-.56.73-.63,1.17,0,.07-.02.14-.02.21,0,.07-.02.15.08.19.17.07.36.04.54.03.36-.03.7-.1,1.03-.16.58-.12,1.17-.24,1.75-.36l.19-.04.09-.02h.05s.02-.01.02-.01c-.03,0,.06,0,.12-.02,1.04-.12,2.09-.24,3.15-.35,2.11-.22,4.24-.41,6.4-.54,1.08-.07,2.17-.12,3.26-.17l1.48-.06,1.45-.07c1.96-.11,4-.25,6.04-.38,8.18-.55,16.5-1.08,24.85-1.42,8.35-.35,16.75-.54,25.19-.52,8.44.02,16.92.26,25.42.8,8.5.54,17.04,1.39,25.58,2.71,8.54,1.32,17.09,3.1,25.56,5.72,4.24,1.32,8.45,2.85,12.61,4.68,1.04.47,2.07.95,3.1,1.45l1.54.78.4.2.28.14c.09.04.22.12.33.18l1.33.76,2.66,1.52c.87.52,1.67,1.1,2.51,1.64,1.71,1.08,3.18,2.26,4.73,3.42.22.14.48.28.68.42l.37.51.74,1.01.74,1.01.18.25.09.13s.03.08.04.12l.14.48.57,1.91.07.24h0s.01.05.01.05c.02.12.04.33.06.53.03.41.05.85.03,1.28-.06,1.72-.5,3.34-1.18,4.82-.69,1.48-1.62,2.83-2.78,4.07-2.3,2.49-5.7,4.48-9.66,5.83-.48.19-1,.33-1.51.47-.51.14-1.01.3-1.53.43-1.05.22-2.09.48-3.16.68l-1.33.22c-.32.06-.65.09-.98.13-.65.08-1.33.17-1.9.22-2.42.24-4.56.37-6.74.54-2.16.16-4.29.32-6.4.5-4.23.36-8.42.8-12.59,1.34-16.69,2.12-33.11,5.71-49.1,10.11-.09-.34,1.78-1.29,2.68-1.93.9-.63.81-.98-3.24-.07-2.01.5-3.9.97-5.67,1.41-1.77.42-3.42.88-4.96,1.27-1.54.39-2.98.75-4.31,1.09-1.33.35-2.56.66-3.69.96-4.55,1.13-7.6,1.87-9.68,2.23-4.16.73-4.39.09-4.61-.56-.06-.17,1.4-.76,3.49-1.51,1.04-.38,2.25-.8,3.5-1.23.63-.22,1.26-.43,1.9-.65.64-.21,1.28-.41,1.9-.61,4.98-1.61,8.97-2.88,4.88-1.94,1.49-.49,3.06-.95,4.67-1.44,1.61-.49,3.26-.99,4.93-1.5,3.37-.96,6.81-2,10.23-2.9,1.71-.46,3.39-.94,5.05-1.36,1.66-.43,3.28-.84,4.85-1.24,1.57-.41,3.09-.75,4.53-1.11,1.44-.35,2.81-.69,4.08-.97,5.1-1.19,8.68-1.95,9.43-2.23.37-.14.04-.14-1.17.01-1.2.16-3.29.45-6.38,1.03-1.04.14-2.47.35-4.18.69-1.71.34-3.69.76-5.87,1.24-2.17.51-4.53,1.07-6.98,1.68-2.44.64-4.99,1.29-7.52,1.98-2.53.71-5.06,1.41-7.49,2.09-2.42.71-4.76,1.39-6.9,1.99-2.14.62-4.09,1.2-5.78,1.65-1.68.46-3.09.79-4.12,1.02-4.15.87-2.33-.3-.5-1.47.91-.59,1.84-1.15,2.01-1.48.17-.32-.42-.43-2.5.01-2,.68-4.51,1.54-7.26,2.48-2.74.98-5.72,2.06-8.71,3.13-2.98,1.1-5.93,2.24-8.65,3.26-1.36.51-2.65,1.02-3.85,1.5-1.2.48-2.3.92-3.28,1.31-8.11,2.48,7.11-5.05-.77-1.92-11.94,4.39-25.61,10.17-39.99,16.92-14.38,6.74-29.46,14.43-44.36,22.4-.16-.3-2.18.39-2.33.13-.07-.13.32-.5,1.65-1.36,1.34-.85,3.63-2.18,7.34-4.23,18.2-9.61,36.72-18.74,55.69-27.06,18.95-8.35,38.32-15.96,58.17-22.42,9.92-3.23,19.97-6.18,30.15-8.74l3.82-.95,3.84-.89c1.28-.29,2.56-.6,3.84-.88l3.86-.82c1.28-.28,2.58-.54,3.87-.79l3.88-.75c2.6-.45,5.19-.95,7.8-1.35,5.21-.85,10.46-1.57,15.72-2.14,2.63-.29,5.26-.54,7.89-.78,2.62-.22,5.25-.42,7.8-.61l1.9-.15.93-.08.46-.04.44-.04.88-.08.44-.04.39-.05.77-.1c.13-.01.26-.04.39-.06l.2-.03s.03,0,.03,0h0c.18-.03.39-.1.56-.18.17-.08.33-.2.4-.39.01-.04.02-.09,0-.14,0-.03-.04-.03-.06-.04l-.06-.04c-.08-.06-.16-.11-.24-.16-.13-.08-.26-.15-.39-.21l-1.64-.82c-.84-.4-1.69-.79-2.54-1.18-3.43-1.51-7.03-2.83-10.71-3.97-7.38-2.29-15.11-3.94-22.97-5.17-7.86-1.23-15.85-2.05-23.89-2.59-8.04-.54-16.14-.8-24.26-.86-8.12-.06-16.26.09-24.42.38-8.16.29-16.31.74-24.55,1.25l-6.26.36c-1.07.05-2.13.11-3.31.14l-1.46.05-1.43.06c-1.92.1-3.86.24-5.83.43-.98.09-1.96.19-2.95.3l-2.34.26-3.05.37-6.12.8c-2.04.27-4.08.53-6.06.73-1.97.2-3.88.33-5.55.29-1.67-.03-3.08-.25-4.18-.59l-.42-.13-.38-.14c-.26-.09-.48-.2-.72-.29-.44-.21-.85-.43-1.21-.66-.36-.23-.69-.47-1-.71-.3-.25-.57-.5-.83-.77-.26-.27-.5-.55-.74-.87-.24-.32-.47-.67-.75-1.18-.07-.13-.14-.27-.2-.43l-.09-.24-.02-.06s-.07-.01-.05-.04l-.04-.1c-.11-.27-.2-.55-.28-.84-.15-.57-.37-1.1-.55-1.64.18-1.08.31-2.1.5-3.08.2-.99.47-1.96.82-2.92.69-1.91,1.68-3.79,3.06-5.69,1.38-1.9,3.18-3.82,5.44-5.7,2.25-1.88,4.97-3.69,7.94-5.35,1.49-.83,3.03-1.62,4.61-2.37.79-.38,1.59-.74,2.39-1.1l1.5-.65c1.75-.75,3.51-1.44,5.26-2.1,3.51-1.31,7.02-2.47,10.54-3.54,7.03-2.13,14.06-3.88,21.1-5.44,7.04-1.56,14.08-2.91,21.13-4.13,14.1-2.43,28.2-4.36,42.31-5.99,7.05-.82,14.11-1.55,21.16-2.23l10.57-.98,5.26-.47,2.58-.24,1.22-.12.5-.06h.08s.02-.01.02-.01h0l.21,1.42.4,2.6.19,1.13.18,1.01c.06.3.12.61.18.91.04.24.09.47.15.7.08.26.08.36.15.54.04.14.1.25.13.26l-5,7.16c-2.05-1.4-4.45-2.7-7.08-3.82-2.62-1.12-5.41-2.11-8.29-2.97-5.77-1.73-11.88-3.02-18.07-4.05-12.41-2.05-25.19-3.11-38.01-3.74-6.41-.31-12.85-.49-19.29-.59-3.22-.05-6.45-.07-9.67-.07h-4.84s-4.97.05-4.97.05l-4.53.07-4.93.09-9.88.22c-3.32.1-6.46.03-9.02-.29-2.57-.32-4.46-.89-5.84-1.53l-.51-.24-.46-.25c-.15-.08-.3-.16-.43-.25-.13-.08-.28-.17-.4-.25-.26-.17-.49-.34-.71-.52-.24-.17-.44-.35-.65-.53-.41-.36-.77-.74-1.11-1.15-.34-.4-.65-.84-.96-1.34-.3-.5-.6-1.07-.9-1.84-.29-.77-.57-1.86-.65-2.85-.02-.25-.04-.5-.04-.75,0-.13,0-.26,0-.39v-.19s0-.09,0-.09c-3.07.38,4.18-.57,3.44-.48h0s.08-.51.08-.51l.16-.99c.39-2.32.78-4.63,1.16-6.94l1.44-.67,1.46-.66,2.91-1.31,5.83-2.62,1.46-.66c.48-.22.96-.44,1.5-.64l3.15-1.25,6.29-2.5,3.15-1.25c.53-.2,1.07-.41,1.6-.6l1.43-.51,3.34-1.17,1.67-.59,1.68-.55,3.37-1.09c8.99-2.86,18.12-5.31,27.36-7.27C135.86,1.81,154.71-.35,173.76.05c4.4.13,7.85.4,10.48.7.66.07,1.26.15,1.82.22.55.07,1.07.15,1.53.22.46.07.88.15,1.25.22.19.04.37.07.54.11.19.04.37.08.54.12.96.25,1.23.41.94.48-.15.03-.44.05-.85.04-.49-.02-1.13-.04-1.9-.07-2.89-.09-7.57-.21-13.16-.07-2.79.05-5.81.21-8.94.38-3.12.21-6.35.46-9.57.8,4.29-.43,6.46-.31,8.62-.2,2.16.13,4.32.25,8.65.15,0,.26-1.09.53-3.24.84-2.15.3-5.37.65-9.62,1.13-4.26.48-9.55,1.1-15.87,2.03-6.31.93-13.64,2.15-21.94,3.9,8.32-1.67,16.71-2.9,25.16-3.74,1.06-.07,1.86-.09,2.44-.08.58,0,.95.03,1.15.08.41.09.15.25-.36.45-.51.19-1.29.42-1.93.64-.64.23-1.15.46-1.13.63-1.05.11-2.1.21-3.13.32-1.03.12-2.04.25-3.02.37-1.96.23-3.78.51-5.34.75-1.56.23-2.85.48-3.76.68-.9.2-1.41.34-1.4.43.06.34.17,1.02.23,1.36,4.12-.72,10.34-1.58,16.59-2.19,6.24-.62,12.51-.94,16.69-1.02-8.35.17-16.69,1.01-16.65,1.37.03.34.1,1.03.13,1.37-1.03.12-2.1.25-3.19.38-1.09.14-2.21.29-3.35.44-.57.07-1.15.15-1.73.22-.58.08-1.17.17-1.76.25-1.18.18-2.39.33-3.61.52-4.88.75-10,1.65-15.09,2.69-10.19,2.09-20.24,4.86-28.1,7.63l.32.98c7.94-2.43,17.91-5.26,28.02-7.47,5.06-1.1,10.14-2.07,14.99-2.85,1.21-.2,2.41-.36,3.59-.54.59-.09,1.17-.17,1.75-.26.58-.07,1.16-.15,1.73-.22,1.14-.14,2.25-.28,3.34-.41,1.09-.11,2.15-.22,3.18-.33-4.1.57-6.13,1.04-7.13,1.36-1,.34-.96.6-.92.94-6.11.89-12.19,1.94-18.25,3.16-6.06,1.22-12.09,2.6-18.06,4.24l-2.24.6-2.23.66c-1.48.44-2.97.87-4.45,1.33-2.94.97-5.9,1.89-8.8,2.98l-2.17.79c-.33.12-.59.23-.86.35-.54.23-1.07.46-1.57.69-1,.46-1.89.95-2.6,1.38,1.3-.54,2.59-1.07,3.91-1.56.33-.12.65-.25.99-.37l2.46-.87,2.92-1.03,2.94-.96c-1.35.6-2.89,1.22-4.58,1.95-.84.36-1.73.72-2.65,1.09l-.35.14-.17.07-.08.03h-.03c-.07.05-.15.09-.22.12-.12.06-.24.13-.37.19-.48.26-.97.49-1.46.73-.49.24-1,.47-1.54.71-.75.33-1.53.68-2.32,1.03-.24.1-.47.21-.71.31l-.09.04-.05.02s0,.02,0,.04c.01.06,0,.12-.02.18-.03.12-.04.25,0,.37.08.24.3.36.51.43.21.08.44.13.66.16.9.13,1.86.09,2.85.11.99,0,2.01,0,3,0,3.27-.04,6.38-.09,9.23-.12"/></g></g></svg>