<svg width="48" height="48" viewBox="0 0 48 48" fill="none" xmlns="http://www.w3.org/2000/svg">
<path d="M31.8842 8.36599C32.0003 8.48207 32.0924 8.61988 32.1553 8.77156C32.2181 8.92323 32.2505 9.08581 32.2505 9.24999C32.2505 9.41417 32.2181 9.57674 32.1553 9.72842C32.0924 9.8801 32.0003 10.0179 31.8842 10.134L18.0182 24L31.8842 37.866C32.0003 37.9821 32.0924 38.1199 32.1552 38.2716C32.2181 38.4232 32.2504 38.5858 32.2504 38.75C32.2504 38.9142 32.2181 39.0767 32.1552 39.2284C32.0924 39.3801 32.0003 39.5179 31.8842 39.634C31.7681 39.7501 31.6303 39.8422 31.4786 39.905C31.327 39.9678 31.1644 40.0002 31.0002 40.0002C30.8361 40.0002 30.6735 39.9678 30.5218 39.905C30.3701 39.8422 30.2323 39.7501 30.1162 39.634L15.3662 24.884C15.2501 24.7679 15.158 24.6301 15.0952 24.4784C15.0323 24.3267 15 24.1642 15 24C15 23.8358 15.0323 23.6732 15.0952 23.5216C15.158 23.3699 15.2501 23.2321 15.3662 23.116L30.1162 8.36599C30.2323 8.24988 30.3701 8.15778 30.5218 8.09494C30.6735 8.0321 30.8361 7.99976 31.0002 7.99976C31.1644 7.99976 31.327 8.0321 31.4787 8.09494C31.6303 8.15778 31.7682 8.24988 31.8842 8.36599Z" fill="#393836"/>
</svg>
